<svg width="131" height="131" viewBox="0 0 131 131" fill="none" xmlns="http://www.w3.org/2000/svg">
<circle cx="65.5" cy="65.5" r="65.5" fill="#2D0BFA"/>
<path d="M65.84 38.992C60.784 45.328 57.136 51.664 54.896 58H54.992C63.888 58 68.976 58.032 70.256 58.096C71.6 58.096 72.336 58.032 72.464 57.904C72.592 57.776 72.688 57.616 72.752 57.424C71.664 49.552 70.8 44.208 70.16 41.392C69.52 38.512 68.88 37.072 68.24 37.072C67.6 37.072 66.8 37.712 65.84 38.992ZM57.296 84.208L59.408 83.824C60.048 83.824 60.368 84.176 60.368 84.88C60.368 87.12 59.92 89.008 59.024 90.544C58.128 92.08 57.008 93.168 55.664 93.808C53.488 94.896 51.632 95.44 50.096 95.44C47.152 95.44 44.944 94.352 43.472 92.176C42 89.936 41.264 86.608 41.264 82.192C41.264 77.712 42.48 71.92 44.912 64.816H39.344C38.64 64.816 38.288 64.464 38.288 63.76C38.288 63.056 38.832 61.936 39.92 60.4C41.008 58.8 42.16 58 43.376 58H47.696C52.24 47.888 57.584 39.152 63.728 31.792C65.328 29.872 67.28 28.08 69.584 26.416C71.952 24.752 73.776 23.92 75.056 23.92C76.336 23.92 77.296 24.496 77.936 25.648C79.6 28.336 81.552 38.16 83.792 55.12C84.56 62.416 85.872 69.968 87.728 77.776C89.648 85.52 91.408 90.032 93.008 91.312C93.392 91.568 93.584 91.888 93.584 92.272C93.584 93.232 92.208 94.128 89.456 94.96C86.768 95.792 84.688 96.208 83.216 96.208C81.808 96.208 80.72 96.016 79.952 95.632C79.184 95.312 78.704 94.96 78.512 94.576C77.36 92.08 76.208 86.128 75.056 76.72L74.48 72.208C74.224 69.2 73.968 66.928 73.712 65.392L73.04 64.912L52.976 64.816C52.208 68.08 51.824 70.928 51.824 73.36C51.824 75.792 51.888 77.584 52.016 78.736C52.208 79.824 52.752 81.008 53.648 82.288C54.544 83.568 55.76 84.208 57.296 84.208Z" fill="#FCF8F8"/>
<path d="M65.84 38.992L66.6216 39.6157L66.631 39.604L66.64 39.592L65.84 38.992ZM54.896 58L53.9532 57.6667L53.4818 59H54.896V58ZM70.256 58.096L70.2061 59.0948L70.231 59.096H70.256V58.096ZM72.752 57.424L73.7007 57.7402L73.7746 57.5186L73.7426 57.2871L72.752 57.424ZM70.16 41.392L69.1838 41.6089L69.1849 41.6136L70.16 41.392ZM57.296 84.208V85.208H57.3862L57.4749 85.1919L57.296 84.208ZM59.408 83.824V82.824H59.3178L59.2291 82.8401L59.408 83.824ZM59.024 90.544L58.1602 90.0401L58.1602 90.0401L59.024 90.544ZM55.664 93.808L55.2341 92.9051L55.2254 92.9093L55.2168 92.9136L55.664 93.808ZM43.472 92.176L42.6362 92.7252L42.6437 92.7363L43.472 92.176ZM44.912 64.816L45.8581 65.1399L46.3113 63.816H44.912V64.816ZM39.92 60.4L40.736 60.978L40.7416 60.9702L40.7469 60.9623L39.92 60.4ZM47.696 58V59H48.343L48.6081 58.4099L47.696 58ZM63.728 31.792L64.4957 32.4328L64.4962 32.4322L63.728 31.792ZM69.584 26.416L69.009 25.5977L68.9985 25.6053L69.584 26.416ZM77.936 25.648L77.0618 26.1336L77.0733 26.1543L77.0857 26.1744L77.936 25.648ZM83.792 55.12L84.7865 55.0153L84.7851 55.0022L84.7834 54.9891L83.792 55.12ZM87.728 77.776L86.7551 78.0073L86.7574 78.0166L87.728 77.776ZM93.008 91.312L92.3833 92.0929L92.4172 92.12L92.4533 92.1441L93.008 91.312ZM89.456 94.96L89.1666 94.0028L89.1603 94.0047L89.456 94.96ZM79.952 95.632L80.3992 94.7376L80.3684 94.7222L80.3366 94.7089L79.952 95.632ZM78.512 94.576L77.604 94.9951L77.6106 95.0092L77.6176 95.0232L78.512 94.576ZM75.056 76.72L76.0486 76.5985L76.048 76.5934L75.056 76.72ZM74.48 72.208L73.4836 72.2928L73.4854 72.3138L73.4881 72.3346L74.48 72.208ZM73.712 65.392L74.6984 65.2276L74.6303 64.819L74.2932 64.5783L73.712 65.392ZM73.04 64.912L73.6212 64.0983L73.3626 63.9135L73.0448 63.912L73.04 64.912ZM52.976 64.816L52.9808 63.816L52.1849 63.8122L52.0026 64.587L52.976 64.816ZM52.016 78.736L51.0221 78.8464L51.0257 78.8783L51.0312 78.9098L52.016 78.736ZM53.648 82.288L54.4672 81.7145L54.4672 81.7145L53.648 82.288ZM65.0584 38.3683C59.9467 44.774 56.2371 51.2064 53.9532 57.6667L55.8388 58.3333C58.0349 52.1216 61.6213 45.882 66.6216 39.6157L65.0584 38.3683ZM54.896 59H54.992V57H54.896V59ZM54.992 59C63.9056 59 68.9583 59.0324 70.2061 59.0948L70.3059 57.0972C68.9937 57.0316 63.8704 57 54.992 57V59ZM70.256 59.096C70.9376 59.096 71.4915 59.08 71.9026 59.0442C72.1056 59.0266 72.3011 59.0019 72.4709 58.9642C72.5557 58.9454 72.6565 58.9184 72.7589 58.8775C72.8468 58.8423 73.0162 58.766 73.1711 58.6111L71.7569 57.1969C71.8798 57.074 71.9982 57.0277 72.0161 57.0205C72.0485 57.0076 72.0603 57.0066 72.0371 57.0118C71.9909 57.0221 71.8944 57.0374 71.7294 57.0518C71.4045 57.08 70.9184 57.096 70.256 57.096V59.096ZM73.1711 58.6111C73.4213 58.3609 73.5935 58.0619 73.7007 57.7402L71.8033 57.1078C71.7826 57.1701 71.7627 57.1911 71.7569 57.1969L73.1711 58.6111ZM73.7426 57.2871C72.6552 49.4194 71.7861 44.0344 71.1351 41.1704L69.1849 41.6136C69.8139 44.3815 70.6728 49.6846 71.7614 57.5609L73.7426 57.2871ZM71.1362 41.1751C70.8119 39.7159 70.4749 38.5583 70.1138 37.7459C69.935 37.3435 69.7254 36.9679 69.4674 36.6776C69.214 36.3926 68.8042 36.072 68.24 36.072V38.072C67.9958 38.072 67.906 37.9314 67.9726 38.0064C68.0346 38.0761 68.145 38.2405 68.2862 38.5581C68.5651 39.1857 68.8681 40.1881 69.1838 41.6089L71.1362 41.1751ZM68.24 36.072C67.592 36.072 67.0132 36.3888 66.5353 36.7711C66.0435 37.1646 65.5457 37.7178 65.04 38.392L66.64 39.592C67.0943 38.9862 67.4765 38.5794 67.7847 38.3329C68.1068 38.0752 68.248 38.072 68.24 38.072V36.072ZM57.4749 85.1919L59.5869 84.8079L59.2291 82.8401L57.1171 83.2241L57.4749 85.1919ZM59.408 84.824C59.4789 84.824 59.4978 84.834 59.4837 84.8289C59.4759 84.826 59.4609 84.8195 59.4422 84.8071C59.4232 84.7946 59.4045 84.7788 59.3881 84.7607C59.3717 84.7427 59.3612 84.7265 59.3551 84.7154C59.3492 84.7046 59.3489 84.701 59.351 84.708C59.3532 84.7152 59.3576 84.7322 59.3613 84.7613C59.3651 84.7904 59.368 84.8295 59.368 84.88H61.368C61.368 84.3962 61.2601 83.8467 60.8679 83.4153C60.4594 82.9659 59.908 82.824 59.408 82.824V84.824ZM59.368 84.88C59.368 86.9883 58.9466 88.692 58.1602 90.0401L59.8878 91.0479C60.8934 89.324 61.368 87.2517 61.368 84.88H59.368ZM58.1602 90.0401C57.3454 91.437 56.3637 92.3672 55.2341 92.9051L56.0939 94.7109C57.6523 93.9688 58.9106 92.723 59.8878 91.0479L58.1602 90.0401ZM55.2168 92.9136C53.107 93.9685 51.412 94.44 50.096 94.44V96.44C51.852 96.44 53.869 95.8235 56.1112 94.7024L55.2168 92.9136ZM50.096 94.44C47.4371 94.44 45.5615 93.4801 44.3003 91.6157L42.6437 92.7363C44.3265 95.2239 46.8669 96.44 50.096 96.44V94.44ZM44.3077 91.6268C42.9919 89.6244 42.264 86.5268 42.264 82.192H40.264C40.264 86.6892 41.0081 90.2476 42.6363 92.7252L44.3077 91.6268ZM42.264 82.192C42.264 77.8718 43.4411 72.2001 45.8581 65.1399L43.9659 64.4921C41.5189 71.6399 40.264 77.5522 40.264 82.192H42.264ZM44.912 63.816H39.344V65.816H44.912V63.816ZM39.344 63.816C39.2483 63.816 39.2054 63.8037 39.1982 63.8013C39.1957 63.8005 39.2024 63.8025 39.215 63.81C39.2279 63.8178 39.2435 63.8293 39.2591 63.8449C39.2747 63.8605 39.2862 63.8761 39.294 63.889C39.3015 63.9016 39.3035 63.9083 39.3027 63.9058C39.3003 63.8986 39.288 63.8556 39.288 63.76H37.288C37.288 64.2661 37.4152 64.8294 37.8449 65.2591C38.2746 65.6888 38.8379 65.816 39.344 65.816V63.816ZM39.288 63.76C39.288 63.6345 39.3463 63.3421 39.5955 62.8289C39.8348 62.3363 40.2094 61.7215 40.736 60.978L39.104 59.822C38.5426 60.6145 38.1012 61.3277 37.7965 61.9551C37.5017 62.5619 37.288 63.1815 37.288 63.76H39.288ZM40.7469 60.9623C41.762 59.4695 42.6514 59 43.376 59V57C41.6686 57 40.254 58.1304 39.0931 59.8377L40.7469 60.9623ZM43.376 59H47.696V57H43.376V59ZM48.6081 58.4099C53.1204 48.3684 58.4184 39.7129 64.4957 32.4328L62.9603 31.1512C56.7496 38.5911 51.3596 47.4076 46.7839 57.5901L48.6081 58.4099ZM64.4962 32.4322C66.036 30.5845 67.9242 28.8483 70.1695 27.2267L68.9985 25.6053C66.6358 27.3117 64.6201 29.1595 62.9598 31.1518L64.4962 32.4322ZM70.1589 27.2342C71.3126 26.4235 72.3056 25.8358 73.143 25.4538C73.9907 25.0671 74.6173 24.92 75.056 24.92V22.92C74.2147 22.92 73.2893 23.1889 72.313 23.6342C71.3264 24.0842 70.2234 24.7445 69.0091 25.5978L70.1589 27.2342ZM75.056 24.92C75.5412 24.92 75.9182 25.0275 76.2215 25.2095C76.5263 25.3924 76.8118 25.6836 77.0618 26.1336L78.8102 25.1624C78.4202 24.4604 77.9057 23.8876 77.2505 23.4945C76.5938 23.1005 75.8508 22.92 75.056 22.92V24.92ZM77.0857 26.1744C77.4259 26.7239 77.8298 27.7311 78.2773 29.2796C78.7184 30.806 79.1821 32.7857 79.6672 35.2269C80.637 40.108 81.6818 46.7797 82.8006 55.2509L84.7834 54.9891C83.6622 46.5003 82.611 39.7799 81.6288 34.8371C81.1379 32.3663 80.6616 30.326 80.1987 28.7244C79.7422 27.1449 79.2781 25.9161 78.7863 25.1216L77.0857 26.1744ZM82.7975 55.2247C83.5704 62.567 84.8901 70.1614 86.7551 78.0073L88.7009 77.5447C86.8539 69.7746 85.5496 62.265 84.7865 55.0153L82.7975 55.2247ZM86.7574 78.0166C87.722 81.9074 88.654 85.0181 89.5564 87.3314C90.0075 88.4881 90.4587 89.4647 90.913 90.2478C91.3608 91.0197 91.8446 91.6619 92.3833 92.0929L93.6327 90.5311C93.3714 90.3221 93.0352 89.9203 92.643 89.2442C92.2573 88.5793 91.8485 87.7039 91.4196 86.6046C90.562 84.4059 89.654 81.3886 88.6986 77.5354L86.7574 78.0166ZM92.4533 92.1441C92.5506 92.2089 92.5785 92.2519 92.5825 92.2585C92.5845 92.2618 92.5839 92.2614 92.5832 92.2591C92.5827 92.257 92.584 92.2602 92.584 92.272H94.584C94.584 91.4829 94.1604 90.8784 93.5627 90.4799L92.4533 92.1441ZM92.584 92.272C92.584 92.2721 92.584 92.2721 92.584 92.2722C92.584 92.2723 92.584 92.2727 92.5838 92.2735C92.5836 92.2748 92.5827 92.2791 92.5799 92.2866C92.5744 92.3017 92.5597 92.3345 92.5227 92.3844C92.4445 92.4899 92.2893 92.6417 92.0063 92.826C91.4356 93.1976 90.509 93.5969 89.1666 94.0028L89.7454 95.9172C91.155 95.4911 92.2924 95.0264 93.0977 94.502C93.8669 94.0011 94.584 93.2757 94.584 92.272H92.584ZM89.1603 94.0047C86.4976 94.8289 84.534 95.208 83.216 95.208V97.208C84.842 97.208 87.0384 96.7551 89.7517 95.9153L89.1603 94.0047ZM83.216 95.208C81.8755 95.208 80.9668 95.0214 80.3992 94.7376L79.5048 96.5264C80.4732 97.0106 81.7405 97.208 83.216 97.208V95.208ZM80.3366 94.7089C79.6106 94.4064 79.428 94.1719 79.4064 94.1288L77.6176 95.0232C77.98 95.7481 78.7574 96.2176 79.5674 96.5551L80.3366 94.7089ZM79.42 94.1569C78.8985 93.0271 78.3403 91.0183 77.7658 88.05C77.1959 85.1056 76.6231 81.2907 76.0486 76.5985L74.0634 76.8415C74.6409 81.5573 75.2201 85.4224 75.8022 88.43C76.3797 91.4137 76.9735 93.6289 77.604 94.9951L79.42 94.1569ZM76.048 76.5934L75.472 72.0814L73.4881 72.3346L74.0641 76.8466L76.048 76.5934ZM75.4764 72.1232C75.2198 69.1083 74.9612 66.8042 74.6984 65.2276L72.7256 65.5564C72.9748 67.0518 73.2282 69.2917 73.4836 72.2928L75.4764 72.1232ZM74.2932 64.5783L73.6212 64.0983L72.4588 65.7257L73.1308 66.2057L74.2932 64.5783ZM73.0448 63.912L52.9808 63.816L52.9712 65.816L73.0352 65.912L73.0448 63.912ZM52.0026 64.587C51.2231 67.9 50.824 70.8281 50.824 73.36H52.824C52.824 71.0279 53.1929 68.26 53.9494 65.045L52.0026 64.587ZM50.824 73.36C50.824 75.798 50.8877 77.6363 51.0221 78.8464L53.0099 78.6256C52.8883 77.5317 52.824 75.786 52.824 73.36H50.824ZM51.0312 78.9098C51.2568 80.1882 51.8814 81.5081 52.8288 82.8615L54.4672 81.7145C53.6226 80.5079 53.1592 79.4598 53.0008 78.5622L51.0312 78.9098ZM52.8288 82.8615C53.9081 84.4033 55.427 85.208 57.296 85.208V83.208C56.093 83.208 55.1799 82.7327 54.4672 81.7145L52.8288 82.8615Z" fill="#FFFCFC"/>
</svg>
